<svg width="336" height="129" viewBox="0 0 336 129" fill="none" xmlns="http://www.w3.org/2000/svg">
<path d="M87.6564 124.16C82.6218 124.16 78.3551 123.563 74.8564 122.368C71.4431 121.173 68.5418 119.723 66.1524 118.016C63.7631 116.309 61.6298 114.688 59.7524 113.152L70.2484 100.864C72.2111 102.656 74.4724 104.363 77.0324 105.984C79.6778 107.691 83.1338 108.544 87.4004 108.544C90.2164 108.544 92.8191 108.032 95.2084 107.008C97.6831 106.069 99.6458 104.661 101.096 102.784C102.632 100.907 103.4 98.56 103.4 95.744V83.456L104.04 86.656C102.675 89.5573 100.2 92.1173 96.6164 94.336C93.0324 96.4693 88.3391 97.536 82.5364 97.536C77.5018 97.536 72.8084 96.256 68.4564 93.696C64.1898 91.0507 60.7764 87.5093 58.2164 83.072C55.6564 78.5493 54.3764 73.4293 54.3764 67.712C54.3764 61.824 55.7418 56.6187 58.4724 52.096C61.2031 47.488 64.7444 43.8613 69.0964 41.216C73.4484 38.5707 78.0564 37.248 82.9204 37.248C87.7844 37.248 91.9658 37.9733 95.4644 39.424C99.0484 40.7893 101.736 42.496 103.528 44.544L102.888 46.208L104.808 40.064H121.32V96C121.32 101.461 119.784 106.283 116.712 110.464C113.64 114.731 109.544 118.059 104.424 120.448C99.3898 122.923 93.8004 124.16 87.6564 124.16ZM72.4244 67.2C72.4244 70.1867 73.1071 72.8747 74.4724 75.264C75.8378 77.6533 77.6724 79.5307 79.9764 80.896C82.3658 82.2613 85.0111 82.944 87.9124 82.944C90.3871 82.944 92.5631 82.6453 94.4404 82.048C96.4031 81.3653 98.1098 80.4267 99.5604 79.232C101.096 77.952 102.376 76.3733 103.4 74.496V60.8C102.632 58.9227 101.48 57.344 99.9444 56.064C98.4084 54.6987 96.6164 53.6747 94.5684 52.992C92.6058 52.224 90.3871 51.84 87.9124 51.84C85.0111 51.84 82.3658 52.5227 79.9764 53.888C77.6724 55.168 75.8378 56.96 74.4724 59.264C73.1071 61.568 72.4244 64.2133 72.4244 67.2ZM163.28 97.536C158.075 97.536 153.339 96.512 149.072 94.464C144.891 92.3307 141.563 89.088 139.088 84.736C136.614 80.384 135.376 74.8373 135.376 68.096C135.376 61.7813 136.656 56.32 139.216 51.712C141.776 47.104 145.147 43.5627 149.328 41.088C153.51 38.528 157.947 37.248 162.64 37.248C168.187 37.248 172.368 38.1867 175.184 40.064C178.086 41.856 180.475 43.8613 182.352 46.08L181.584 48.256L183.248 40.064H199.888V96H181.968V83.84L183.376 87.68C183.206 87.68 182.694 88.192 181.84 89.216C180.987 90.1547 179.707 91.3067 178 92.672C176.379 93.952 174.331 95.0613 171.856 96C169.467 97.024 166.608 97.536 163.28 97.536ZM168.4 82.944C170.534 82.944 172.454 82.6453 174.16 82.048C175.867 81.3653 177.36 80.4267 178.64 79.232C179.92 77.952 181.03 76.3733 181.968 74.496V60.8C181.286 58.9227 180.262 57.344 178.896 56.064C177.531 54.6987 175.91 53.6747 174.032 52.992C172.155 52.224 170.064 51.84 167.76 51.84C165.2 51.84 162.811 52.5227 160.592 53.888C158.459 55.168 156.752 56.96 155.472 59.264C154.192 61.568 153.552 64.2133 153.552 67.2C153.552 70.1867 154.235 72.8747 155.6 75.264C156.966 77.6533 158.758 79.5307 160.976 80.896C163.28 82.2613 165.755 82.944 168.4 82.944ZM234.481 40.064L236.145 55.424L235.761 53.12C237.383 49.792 239.601 46.976 242.417 44.672C245.233 42.2827 248.007 40.448 250.737 39.168C253.553 37.888 255.687 37.248 257.137 37.248L256.241 55.168C252.06 54.656 248.476 55.3387 245.489 57.216C242.503 59.0933 240.199 61.568 238.577 64.64C236.956 67.712 236.145 70.8693 236.145 74.112V96H218.353V40.064H234.481ZM275.333 122.88L312.581 40.064H328.709L292.613 122.88H275.333ZM290.309 96.256L262.917 40.064H283.013L304.133 87.296L290.309 96.256Z" fill="#7B5CBF"/>
<path d="M82.144 125.16C77.1093 125.16 72.8427 124.563 69.344 123.368C65.9307 122.173 63.0293 120.723 60.64 119.016C58.2507 117.309 56.1173 115.688 54.24 114.152L64.736 101.864C66.6987 103.656 68.96 105.363 71.52 106.984C74.1653 108.691 77.6213 109.544 81.888 109.544C84.704 109.544 87.3067 109.032 89.696 108.008C92.1707 107.069 94.1333 105.661 95.584 103.784C97.12 101.907 97.888 99.56 97.888 96.744V84.456L98.528 87.656C97.1627 90.5573 94.688 93.1173 91.104 95.336C87.52 97.4693 82.8267 98.536 77.024 98.536C71.9893 98.536 67.296 97.256 62.944 94.696C58.6773 92.0507 55.264 88.5093 52.704 84.072C50.144 79.5493 48.864 74.4293 48.864 68.712C48.864 62.824 50.2293 57.6187 52.96 53.096C55.6907 48.488 59.232 44.8613 63.584 42.216C67.936 39.5707 72.544 38.248 77.408 38.248C82.272 38.248 86.4533 38.9733 89.952 40.424C93.536 41.7893 96.224 43.496 98.016 45.544L97.376 47.208L99.296 41.064H115.808V97C115.808 102.461 114.272 107.283 111.2 111.464C108.128 115.731 104.032 119.059 98.912 121.448C93.8773 123.923 88.288 125.16 82.144 125.16ZM66.912 68.2C66.912 71.1867 67.5947 73.8747 68.96 76.264C70.3253 78.6533 72.16 80.5307 74.464 81.896C76.8533 83.2613 79.4987 83.944 82.4 83.944C84.8747 83.944 87.0507 83.6453 88.928 83.048C90.8907 82.3653 92.5973 81.4267 94.048 80.232C95.584 78.952 96.864 77.3733 97.888 75.496V61.8C97.12 59.9227 95.968 58.344 94.432 57.064C92.896 55.6987 91.104 54.6747 89.056 53.992C87.0933 53.224 84.8747 52.84 82.4 52.84C79.4987 52.84 76.8533 53.5227 74.464 54.888C72.16 56.168 70.3253 57.96 68.96 60.264C67.5947 62.568 66.912 65.2133 66.912 68.2ZM157.768 98.536C152.563 98.536 147.827 97.512 143.56 95.464C139.379 93.3307 136.051 90.088 133.576 85.736C131.101 81.384 129.864 75.8373 129.864 69.096C129.864 62.7813 131.144 57.32 133.704 52.712C136.264 48.104 139.635 44.5627 143.816 42.088C147.997 39.528 152.435 38.248 157.128 38.248C162.675 38.248 166.856 39.1867 169.672 41.064C172.573 42.856 174.963 44.8613 176.84 47.08L176.072 49.256L177.736 41.064H194.376V97H176.456V84.84L177.864 88.68C177.693 88.68 177.181 89.192 176.328 90.216C175.475 91.1547 174.195 92.3067 172.488 93.672C170.867 94.952 168.819 96.0613 166.344 97C163.955 98.024 161.096 98.536 157.768 98.536ZM162.888 83.944C165.021 83.944 166.941 83.6453 168.648 83.048C170.355 82.3653 171.848 81.4267 173.128 80.232C174.408 78.952 175.517 77.3733 176.456 75.496V61.8C175.773 59.9227 174.749 58.344 173.384 57.064C172.019 55.6987 170.397 54.6747 168.52 53.992C166.643 53.224 164.552 52.84 162.248 52.84C159.688 52.84 157.299 53.5227 155.08 54.888C152.947 56.168 151.24 57.96 149.96 60.264C148.68 62.568 148.04 65.2133 148.04 68.2C148.04 71.1867 148.723 73.8747 150.088 76.264C151.453 78.6533 153.245 80.5307 155.464 81.896C157.768 83.2613 160.243 83.944 162.888 83.944ZM228.969 41.064L230.633 56.424L230.249 54.12C231.87 50.792 234.089 47.976 236.905 45.672C239.721 43.2827 242.494 41.448 245.225 40.168C248.041 38.888 250.174 38.248 251.625 38.248L250.729 56.168C246.548 55.656 242.964 56.3387 239.977 58.216C236.99 60.0933 234.686 62.568 233.065 65.64C231.444 68.712 230.633 71.8693 230.633 75.112V97H212.841V41.064H228.969ZM269.821 123.88L307.069 41.064H323.197L287.101 123.88H269.821ZM284.797 97.256L257.405 41.064H277.501L298.621 88.296L284.797 97.256Z" fill="#42EC6C"/>
<path d="M106.029 65.3569C105.783 64.2919 105.106 63.3637 104.12 62.7417C103.135 62.1197 101.908 61.8455 100.662 61.9691C96.3075 52.7493 85.6324 47.5179 74.8322 49.9874C64.0321 52.4569 56.6913 61.8078 56.776 72.004C55.6019 72.436 54.6177 73.2179 54.003 74.2069C53.3884 75.196 53.1842 76.3263 53.4278 77.3916C53.6714 78.4568 54.3464 79.3861 55.3299 80.0097C56.3133 80.6334 57.5395 80.9098 58.7847 80.7887C63.1364 89.9949 73.8115 95.2264 84.6117 92.7569C95.4119 90.2874 102.753 80.9365 102.674 70.7674C103.853 70.3333 104.84 69.5477 105.456 68.5543C106.072 67.5608 106.275 66.4259 106.029 65.3569Z" fill="#42EC6C"/>
<path d="M56.5379 73.2146C59.5406 72.1728 62.3341 70.6421 64.7819 68.6969C66.6926 67.1063 68.2806 65.2129 69.4654 63.1128L70.3546 67.0015C73.3489 66.3133 76.1461 64.9718 78.5076 63.0913C80.2545 61.7113 81.6105 59.9571 82.4483 57.9929C84.4762 60.2309 87.2221 61.8136 90.3157 62.5275C93.7402 63.408 97.3659 63.5511 100.92 62.9461L100.407 60.7016C99.173 55.3061 95.6505 50.6664 90.614 47.8034C85.5776 44.9403 79.4398 44.0883 73.5509 45.4348C67.662 46.7814 62.5044 50.2161 59.2127 54.9834C55.921 59.7508 54.7648 65.4602 55.9985 70.8557L56.5379 73.2146Z" fill="#1A662D"/>
<path fill-rule="evenodd" clip-rule="evenodd" d="M85.2885 63.7218C94.7885 60.671 104.464 59.1517 105.365 59.5782C105.814 59.7919 106.292 61.8831 105.978 62.2711C105.912 62.3529 105.811 62.4471 105.692 62.5592C105.244 62.9789 104.53 63.6494 104.346 64.8582C104.312 65.077 104.333 65.5385 104.36 66.1501C104.457 68.2997 104.636 72.3034 102.852 74.1387C100.583 76.4727 91.9327 78.11 88.8718 77.6528C85.3582 77.127 83.5867 73.4482 82.4631 71.1147C82.2561 70.6849 82.0711 70.3007 81.9012 69.9902C81.3482 68.9789 79.8832 69.2205 79.5473 69.2974C79.2114 69.3742 77.787 69.7932 77.7284 70.9444C77.7107 71.2967 77.7112 71.7215 77.7118 72.1967C77.7149 74.7868 77.7199 78.8737 74.7806 80.8748C72.224 82.6165 63.7204 84.9014 60.6626 83.7854C58.2579 82.908 56.6795 79.2242 55.8321 77.2463C55.591 76.6836 55.409 76.259 55.2841 76.0764C54.5929 75.0668 53.6579 74.7741 53.0725 74.5908C52.9161 74.5419 52.7847 74.5007 52.6895 74.4558C52.2412 74.2421 51.763 72.1509 52.0739 71.7636C52.7005 70.989 62.0748 68.1512 71.9566 66.7702C72.6352 66.6754 73.1061 66.6599 73.6209 66.643C74.6022 66.6107 75.7433 66.5731 78.7884 65.9714C81.7908 65.1896 82.8359 64.7273 83.733 64.3304C84.2047 64.1218 84.6355 63.9312 85.2885 63.7218ZM73.634 78.6721C75.1994 76.9947 74.8806 72.6837 74.7053 71.2412C74.3923 68.6655 70.3537 69.0361 65.6366 70.1147C60.8595 71.207 57.5964 72.3559 57.9705 74.2538C58.5928 77.4168 60.5564 80.7705 61.9723 81.3906C64.6711 82.5738 71.8912 80.539 73.634 78.6721ZM88.9498 75.1701C86.811 74.3396 85.2245 70.3185 84.7555 68.9432C83.918 66.4874 87.7179 65.0657 92.4335 63.9874C97.2106 62.8951 100.649 62.5118 101.137 64.3837C101.951 67.5028 101.64 71.3766 100.634 72.5504C98.7177 74.7889 91.3307 76.094 88.9498 75.1701Z" fill="#1A662D"/>
<path d="M76.9342 84.7816C76.9342 84.7816 78.9533 85.9756 80.3762 85.9766C82.1364 85.9779 82.6132 85.7144 82.6132 85.7144M76.7429 83.5C76.7429 83.5 77.053 83.882 76.7924 84.6102C76.4837 85.4729 75.9044 85.5 75.9044 85.5" stroke="#1A662D" stroke-linecap="round"/>
</svg>
